<svg width="259" height="44" viewBox="0 0 259 44" fill="none" xmlns="http://www.w3.org/2000/svg">
<path d="M25.4375 13.3711C24.7448 10.0352 23.4688 7.44661 21.6094 5.60547C19.7682 3.76432 17.5534 2.84375 14.9648 2.84375C12.431 2.84375 10.4622 3.44531 9.05859 4.64844C7.67318 5.85156 6.98047 7.45573 6.98047 9.46094C6.98047 10.5729 7.08073 11.4935 7.28125 12.2227C7.48177 12.9518 7.89193 13.6628 8.51172 14.3555C9.13151 15.0299 10.0339 15.6315 11.2188 16.1602C12.4036 16.6706 13.9531 17.1628 15.8672 17.6367C16.9062 17.8919 17.8086 18.1289 18.5742 18.3477C19.3581 18.5664 20.2148 18.8672 21.1445 19.25C22.0924 19.6328 22.9036 20.043 23.5781 20.4805C24.2708 20.918 24.9544 21.4648 25.6289 22.1211C26.3216 22.7591 26.8776 23.4701 27.2969 24.2539C27.7344 25.0378 28.0807 25.9674 28.3359 27.043C28.6094 28.1003 28.7461 29.2578 28.7461 30.5156C28.7461 32.1927 28.4362 33.7422 27.8164 35.1641C27.1966 36.5677 26.3854 37.7526 25.3828 38.7188C24.3802 39.6849 23.2227 40.5052 21.9102 41.1797C20.5977 41.8542 19.2669 42.3464 17.918 42.6562C16.569 42.9661 15.2292 43.1211 13.8984 43.1211C9.85156 43.1211 5.54036 42.0729 0.964844 39.9766C1.05599 38.0078 1.10156 36.7956 1.10156 36.3398C1.10156 33.3685 0.855469 30.4062 0.363281 27.4531C0.563802 27.3255 0.764323 27.2617 0.964844 27.2617C1.22005 27.2617 1.44792 27.3255 1.64844 27.4531C2.03125 29.8047 2.66016 31.8828 3.53516 33.6875C4.42839 35.4922 5.44922 36.9232 6.59766 37.9805C7.74609 39.0195 8.93099 39.8034 10.1523 40.332C11.3919 40.8424 12.6406 41.0977 13.8984 41.0977C16.7604 41.0977 18.957 40.3594 20.4883 38.8828C22.0378 37.388 22.8125 35.4193 22.8125 32.9766C22.8125 30.5156 22.2383 28.6654 21.0898 27.4258C19.9596 26.168 17.7904 25.1471 14.582 24.3633C10.5716 23.3607 7.4362 21.8841 5.17578 19.9336C2.93359 17.9648 1.8125 15.3672 1.8125 12.1406C1.8125 10.4453 2.08594 8.93229 2.63281 7.60156C3.19792 6.2526 3.91797 5.17708 4.79297 4.375C5.6862 3.55469 6.72526 2.88021 7.91016 2.35156C9.09505 1.80469 10.2617 1.43099 11.4102 1.23047C12.5768 1.01172 13.7617 0.902344 14.9648 0.902344C18.5742 0.902344 22.3294 1.74089 26.2305 3.41797C26.1211 4.49349 26.0664 5.61458 26.0664 6.78125C26.0664 9.51562 26.2852 11.7122 26.7227 13.3711C26.4857 13.4622 26.2852 13.5078 26.1211 13.5078C25.9388 13.5078 25.7109 13.4622 25.4375 13.3711ZM66.6172 40.8789C67.0729 40.806 67.4466 40.7331 67.7383 40.6602C68.0482 40.569 68.3854 40.4323 68.75 40.25C69.1146 40.0677 69.388 39.8125 69.5703 39.4844C69.7526 39.138 69.8438 38.7279 69.8438 38.2539L69.8984 25.2656C69.8984 21.9661 68.9141 20.3164 66.9453 20.3164C65.9609 20.3164 64.8945 20.6263 63.7461 21.2461C62.5977 21.8659 61.2214 22.7956 59.6172 24.0352V24.3633L59.8359 38.2539C59.8542 38.7279 59.9909 39.138 60.2461 39.4844C60.5195 39.8125 60.9023 40.0677 61.3945 40.25C61.8867 40.4323 62.2969 40.569 62.625 40.6602C62.9531 40.7331 63.3815 40.806 63.9102 40.8789C63.9831 41.2435 64.0195 41.4896 64.0195 41.6172C64.0195 41.763 63.9831 41.9453 63.9102 42.1641C61.5586 42.0547 59.4167 42 57.4844 42C55.7161 42 53.6562 42.0547 51.3047 42.1641C51.2318 41.8724 51.1953 41.6536 51.1953 41.5078C51.1953 41.3802 51.2318 41.1706 51.3047 40.8789C51.7604 40.806 52.1432 40.7331 52.4531 40.6602C52.763 40.569 53.1003 40.4323 53.4648 40.25C53.8294 40.0677 54.1029 39.8125 54.2852 39.4844C54.4674 39.138 54.5586 38.7279 54.5586 38.2539L54.6133 25.2656C54.6133 21.9661 53.6289 20.3164 51.6602 20.3164C50.6758 20.3164 49.6276 20.6172 48.5156 21.2188C47.4219 21.8203 46.0456 22.7409 44.3867 23.9805C44.3867 29.3216 44.4596 34.0794 44.6055 38.2539C44.6237 38.7279 44.7513 39.138 44.9883 39.4844C45.2253 39.8125 45.5625 40.0677 46 40.25C46.4557 40.4323 46.8477 40.569 47.1758 40.6602C47.5039 40.7331 47.9141 40.806 48.4062 40.8789C48.5156 41.0977 48.5703 41.3255 48.5703 41.5625C48.5703 41.7448 48.5156 41.9453 48.4062 42.1641C46 42.0547 43.7578 42 41.6797 42C39.4557 42 37.1406 42.0547 34.7344 42.1641C34.6615 41.8724 34.625 41.6719 34.625 41.5625C34.625 41.4714 34.6615 41.2435 34.7344 40.8789C35.3359 40.806 35.8281 40.7331 36.2109 40.6602C36.5938 40.569 37.0677 40.4323 37.6328 40.25C38.1979 40.0677 38.6263 39.8125 38.918 39.4844C39.2096 39.138 39.3646 38.7279 39.3828 38.2539C39.4557 36.4492 39.4922 34.2617 39.4922 31.6914C39.4922 30.8346 39.4831 29.3763 39.4648 27.3164C39.4466 25.2565 39.4375 23.4518 39.4375 21.9023C38.3984 21.2643 36.6484 20.8906 34.1875 20.7812C34.1146 20.4896 34.0781 20.2617 34.0781 20.0977C34.0781 19.9883 34.1146 19.7878 34.1875 19.4961C37.724 19.1315 40.8047 18.3841 43.4297 17.2539C43.8854 17.4362 44.2044 17.6732 44.3867 17.9648V22.2852C45.2435 21.5013 45.9635 20.8724 46.5469 20.3984C47.1302 19.9062 47.8411 19.3776 48.6797 18.8125C49.5365 18.2474 50.3841 17.8281 51.2227 17.5547C52.0794 17.2812 52.9544 17.1445 53.8477 17.1445C55.6341 17.1445 56.9648 17.5729 57.8398 18.4297C58.7148 19.2682 59.2617 20.5898 59.4805 22.3945C60.4102 21.556 61.1484 20.9089 61.6953 20.4531C62.2604 19.9974 62.9896 19.4688 63.8828 18.8672C64.776 18.2656 65.651 17.8281 66.5078 17.5547C67.3646 17.2812 68.2396 17.1445 69.1328 17.1445C71.1927 17.1445 72.6602 17.7279 73.5352 18.8945C74.4102 20.0612 74.8659 21.8841 74.9023 24.3633L75.1758 38.2539C75.194 38.7279 75.3307 39.138 75.5859 39.4844C75.8594 39.8125 76.2422 40.0677 76.7344 40.25C77.2266 40.4323 77.6367 40.569 77.9648 40.6602C78.293 40.7331 78.7214 40.806 79.25 40.8789C79.3411 41.3346 79.3867 41.5807 79.3867 41.6172C79.3867 41.7083 79.3411 41.8906 79.25 42.1641C76.8984 42.0547 74.7383 42 72.7695 42C71.0195 42 68.9688 42.0547 66.6172 42.1641C66.526 41.7995 66.4805 41.5807 66.4805 41.5078C66.4805 41.4531 66.526 41.2435 66.6172 40.8789ZM85.4297 24.0352C85.4297 22.0299 86.3411 20.3802 88.1641 19.0859C90.0052 17.7917 92.1745 17.1445 94.6719 17.1445C97.7344 17.1445 99.8854 17.7552 101.125 18.9766C102.383 20.1979 103.012 22.2578 103.012 25.1562V36.5039C103.012 37.5247 103.385 38.0352 104.133 38.0352C104.734 38.0352 105.5 37.306 106.43 35.8477C107.086 35.9023 107.533 36.194 107.77 36.7227C107.642 36.9049 107.423 37.2331 107.113 37.707C106.803 38.181 106.576 38.5182 106.43 38.7188C106.284 38.9193 106.056 39.2292 105.746 39.6484C105.436 40.0495 105.181 40.3503 104.98 40.5508C104.798 40.7513 104.543 40.9883 104.215 41.2617C103.905 41.5352 103.613 41.7448 103.34 41.8906C103.085 42.0182 102.784 42.1276 102.438 42.2188C102.091 42.3281 101.745 42.3828 101.398 42.3828C100.487 42.3828 99.7305 42.0547 99.1289 41.3984C98.5456 40.7422 98.1992 39.7305 98.0898 38.3633C98.0716 38.3815 97.7891 38.6458 97.2422 39.1562C96.6953 39.6667 96.3125 40.013 96.0938 40.1953C95.8932 40.3594 95.5013 40.6602 94.918 41.0977C94.3529 41.5169 93.8698 41.8177 93.4688 42C93.0677 42.1823 92.5664 42.3555 91.9648 42.5195C91.3633 42.7018 90.7708 42.793 90.1875 42.793C89.2578 42.793 88.4284 42.6654 87.6992 42.4102C86.9883 42.1549 86.4323 41.8451 86.0312 41.4805C85.6302 41.1159 85.3021 40.6966 85.0469 40.2227C84.7917 39.7305 84.6185 39.2839 84.5273 38.8828C84.4544 38.4818 84.418 38.0807 84.418 37.6797C84.418 36.4583 84.6185 35.4284 85.0195 34.5898C85.4388 33.7513 86.2044 32.9674 87.3164 32.2383C88.4466 31.5091 89.832 30.862 91.4727 30.2969C93.1133 29.7318 95.319 29.0938 98.0898 28.3828V24.582C98.0898 22.7409 97.6797 21.3646 96.8594 20.4531C96.0573 19.5417 94.9727 19.0859 93.6055 19.0859C92.3841 19.0859 91.3542 19.332 90.5156 19.8242C89.6953 20.2982 89.194 20.8542 89.0117 21.4922C90.7982 21.7656 91.6914 22.7409 91.6914 24.418C91.6914 25.1836 91.418 25.8581 90.8711 26.4414C90.3242 27.0247 89.5586 27.3164 88.5742 27.3164C87.7539 27.3164 87.0247 27.0339 86.3867 26.4688C85.7487 25.8854 85.4297 25.0742 85.4297 24.0352ZM98.0898 35.8477V30.1328C96.4128 30.5156 95.0273 30.9349 93.9336 31.3906C92.8398 31.8281 92.0013 32.3112 91.418 32.8398C90.8529 33.3685 90.4609 33.9154 90.2422 34.4805C90.0234 35.0273 89.9141 35.6654 89.9141 36.3945C89.9141 37.306 90.1784 38.026 90.707 38.5547C91.2539 39.0651 91.9193 39.3203 92.7031 39.3203C94.526 39.3203 96.3216 38.1628 98.0898 35.8477ZM111.242 19.4961C114.779 19.1315 117.859 18.3841 120.484 17.2539C120.94 17.4362 121.259 17.6732 121.441 17.9648V22.668C122.116 21.3919 123.118 20.1523 124.449 18.9492C125.798 17.7461 127.202 17.1445 128.66 17.1445C129.754 17.1445 130.638 17.4727 131.312 18.1289C132.005 18.7669 132.352 19.651 132.352 20.7812C132.352 21.8568 132.033 22.6953 131.395 23.2969C130.757 23.8984 129.954 24.1992 128.988 24.1992C128.095 24.1992 127.357 23.9167 126.773 23.3516C126.208 22.7682 125.898 22.0026 125.844 21.0547C125.078 21.3828 124.203 22.112 123.219 23.2422C122.253 24.3724 121.66 25.4935 121.441 26.6055C121.441 30.6706 121.514 34.5534 121.66 38.2539C121.678 38.7279 121.852 39.138 122.18 39.4844C122.508 39.8125 122.991 40.0677 123.629 40.25C124.267 40.4323 124.796 40.569 125.215 40.6602C125.634 40.7331 126.181 40.806 126.855 40.8789C126.965 41.0977 127.02 41.3255 127.02 41.5625C127.02 41.7448 126.965 41.9453 126.855 42.1641C124.121 42.0547 121.414 42 118.734 42C116.51 42 114.195 42.0547 111.789 42.1641C111.716 41.8724 111.68 41.6719 111.68 41.5625C111.68 41.4714 111.716 41.2435 111.789 40.8789C112.391 40.806 112.883 40.7331 113.266 40.6602C113.648 40.569 114.122 40.4323 114.688 40.25C115.253 40.0677 115.681 39.8125 115.973 39.4844C116.264 39.138 116.419 38.7279 116.438 38.2539C116.51 36.4492 116.547 34.2617 116.547 31.6914C116.547 30.8346 116.538 29.3763 116.52 27.3164C116.501 25.2565 116.492 23.4518 116.492 21.9023C115.453 21.2643 113.703 20.8906 111.242 20.7812C111.169 20.4896 111.133 20.2617 111.133 20.0977C111.133 19.9883 111.169 19.7878 111.242 19.4961ZM143.617 12.4961C143.799 12.4232 144.009 12.3867 144.246 12.3867C144.483 12.3867 144.729 12.4232 144.984 12.4961V18.4844H153.27C153.379 18.7578 153.434 19.0951 153.434 19.4961C153.434 19.8424 153.379 20.1615 153.27 20.4531H144.984V35.0547C144.984 37.9349 146.306 39.375 148.949 39.375C149.952 39.375 150.809 39.1836 151.52 38.8008C152.249 38.418 153.051 37.8438 153.926 37.0781C154.382 37.1328 154.682 37.3516 154.828 37.7344C154.026 39.1745 152.841 40.3776 151.273 41.3438C149.706 42.3099 147.983 42.793 146.105 42.793C141.694 42.793 139.488 40.1224 139.488 34.7812V20.4531H136.125C136.052 20.125 136.016 19.9154 136.016 19.8242C136.016 19.806 136.052 19.5964 136.125 19.1953C137 18.7578 137.665 18.4023 138.121 18.1289C138.595 17.8372 139.188 17.4271 139.898 16.8984C140.628 16.3698 141.284 15.75 141.867 15.0391C142.469 14.3099 143.052 13.4622 143.617 12.4961Z" fill="#1E1E1E"/>
<path d="M164.316 23.4609C164.316 22.1484 164.225 16.1419 164.043 5.44141C163.988 5.02214 163.77 4.66667 163.387 4.375C163.022 4.0651 162.484 3.82812 161.773 3.66406C161.062 3.5 160.479 3.38151 160.023 3.30859C159.586 3.23568 158.966 3.16276 158.164 3.08984C158.091 2.76172 158.055 2.53385 158.055 2.40625C158.055 2.29688 158.091 2.09635 158.164 1.80469C158.638 1.82292 159.768 1.86849 161.555 1.94141C163.341 1.99609 164.717 2.02344 165.684 2.02344C166.504 2.02344 168.053 1.98698 170.332 1.91406C172.611 1.84115 174.251 1.80469 175.254 1.80469C179.921 1.80469 183.484 2.88932 185.945 5.05859C188.406 7.22786 189.637 10.1172 189.637 13.7266C189.637 17.1536 188.534 19.9518 186.328 22.1211C184.122 24.2904 180.987 25.375 176.922 25.375C174.479 25.375 172.283 24.8646 170.332 23.8438C170.332 28.2917 170.387 33.0951 170.496 38.2539C170.514 38.7279 170.724 39.138 171.125 39.4844C171.526 39.8125 172.1 40.0677 172.848 40.25C173.613 40.4323 174.251 40.569 174.762 40.6602C175.29 40.7331 175.974 40.806 176.812 40.8789C176.885 41.2435 176.922 41.4896 176.922 41.6172C176.922 41.763 176.885 41.9453 176.812 42.1641C173.714 42.0547 170.542 42 167.297 42C164.016 42 160.844 42.0547 157.781 42.1641C157.708 41.9453 157.672 41.763 157.672 41.6172C157.672 41.3073 157.708 41.0612 157.781 40.8789C158.62 40.806 159.294 40.7331 159.805 40.6602C160.333 40.569 160.971 40.4323 161.719 40.25C162.484 40.0677 163.068 39.8125 163.469 39.4844C163.87 39.138 164.079 38.7279 164.098 38.2539C164.243 33.569 164.316 28.638 164.316 23.4609ZM170.496 3.69141C170.387 10.2539 170.332 16.3607 170.332 22.0117C171.827 22.6862 173.312 23.0234 174.789 23.0234C177.359 23.0234 179.292 22.194 180.586 20.5352C181.88 18.8763 182.527 16.5885 182.527 13.6719C182.527 6.94531 179.201 3.58203 172.547 3.58203C172.128 3.58203 171.444 3.61849 170.496 3.69141ZM193.711 19.4961C197.247 19.1315 200.328 18.3841 202.953 17.2539C203.409 17.4362 203.728 17.6732 203.91 17.9648C203.91 27.4258 203.983 34.1888 204.129 38.2539C204.147 38.7279 204.284 39.138 204.539 39.4844C204.812 39.8125 205.195 40.0677 205.688 40.25C206.18 40.4323 206.59 40.569 206.918 40.6602C207.246 40.7331 207.674 40.806 208.203 40.8789C208.312 41.0977 208.367 41.3255 208.367 41.5625C208.367 41.7995 208.312 42 208.203 42.1641C205.797 42.0547 203.464 42 201.203 42C198.979 42 196.664 42.0547 194.258 42.1641C194.185 41.8724 194.148 41.6719 194.148 41.5625C194.148 41.4714 194.185 41.2435 194.258 40.8789C194.859 40.806 195.352 40.7331 195.734 40.6602C196.117 40.569 196.591 40.4323 197.156 40.25C197.721 40.0677 198.15 39.8125 198.441 39.4844C198.733 39.138 198.888 38.7279 198.906 38.2539C198.979 36.4492 199.016 34.2617 199.016 31.6914C199.016 30.8346 199.007 29.3763 198.988 27.3164C198.97 25.2565 198.961 23.4518 198.961 21.9023C197.922 21.2643 196.172 20.8906 193.711 20.7812C193.638 20.4896 193.602 20.2617 193.602 20.0977C193.602 19.9883 193.638 19.7878 193.711 19.4961ZM198.004 8.06641C198.004 7.13672 198.332 6.34375 198.988 5.6875C199.663 5.03125 200.456 4.70312 201.367 4.70312C202.297 4.70312 203.09 5.03125 203.746 5.6875C204.402 6.34375 204.73 7.13672 204.73 8.06641C204.73 8.97786 204.402 9.77083 203.746 10.4453C203.09 11.1016 202.297 11.4297 201.367 11.4297C200.456 11.4297 199.663 11.1016 198.988 10.4453C198.332 9.77083 198.004 8.97786 198.004 8.06641ZM234.207 34.8906C234.645 34.9818 235 35.1823 235.273 35.4922C234.362 37.9349 232.949 39.7669 231.035 40.9883C229.121 42.1914 227.043 42.793 224.801 42.793C223.689 42.793 222.604 42.6471 221.547 42.3555C220.49 42.082 219.46 41.6263 218.457 40.9883C217.473 40.3503 216.607 39.5664 215.859 38.6367C215.13 37.6888 214.538 36.513 214.082 35.1094C213.645 33.6875 213.426 32.1198 213.426 30.4062C213.426 26.4505 214.638 23.2513 217.062 20.8086C219.487 18.3659 222.513 17.1445 226.141 17.1445C228.693 17.1445 230.771 17.7005 232.375 18.8125C233.997 19.9062 234.809 21.3099 234.809 23.0234C234.809 23.9896 234.49 24.7917 233.852 25.4297C233.214 26.0677 232.43 26.3867 231.5 26.3867C230.516 26.3867 229.723 26.1042 229.121 25.5391C228.52 24.9557 228.219 24.2812 228.219 23.5156C228.219 22.1302 228.921 21.2552 230.324 20.8906C230.197 20.4714 229.786 20.043 229.094 19.6055C228.401 19.1497 227.417 18.9219 226.141 18.9219C225.484 18.9219 224.865 19.0039 224.281 19.168C223.698 19.3138 223.069 19.6328 222.395 20.125C221.738 20.6172 221.173 21.2643 220.699 22.0664C220.243 22.8685 219.861 23.9896 219.551 25.4297C219.241 26.8516 219.086 28.5104 219.086 30.4062C219.086 31.6823 219.214 32.8398 219.469 33.8789C219.742 34.918 220.161 35.8568 220.727 36.6953C221.292 37.5339 222.066 38.1901 223.051 38.6641C224.035 39.138 225.193 39.375 226.523 39.375C227.362 39.375 228.155 39.2656 228.902 39.0469C229.65 38.8099 230.251 38.5638 230.707 38.3086C231.181 38.0534 231.682 37.6706 232.211 37.1602C232.758 36.6315 233.122 36.2578 233.305 36.0391C233.487 35.8021 233.788 35.4193 234.207 34.8906ZM249.629 42.793C248.736 42.793 247.924 42.7201 247.195 42.5742C246.484 42.4284 245.928 42.2734 245.527 42.1094C245.145 41.9453 244.625 41.6992 243.969 41.3711C243.258 41.3711 242.21 41.6354 240.824 42.1641C240.587 42.0182 240.423 41.8542 240.332 41.6719C240.423 41.3802 240.533 40.3867 240.66 38.6914C240.806 36.9961 240.879 35.4831 240.879 34.1523C241.116 34.043 241.544 33.9883 242.164 33.9883C242.492 35.0456 242.829 35.9479 243.176 36.6953C243.54 37.4427 243.996 38.1719 244.543 38.8828C245.108 39.5755 245.783 40.1042 246.566 40.4688C247.368 40.8151 248.28 40.9883 249.301 40.9883C250.887 40.9883 252.126 40.5781 253.02 39.7578C253.931 38.9375 254.387 38.0078 254.387 36.9688C254.387 36.1849 254.259 35.5195 254.004 34.9727C253.749 34.4258 253.174 33.8516 252.281 33.25C251.406 32.6302 250.148 32.0195 248.508 31.418C247.487 31.0534 246.621 30.7161 245.91 30.4062C245.199 30.0964 244.461 29.7135 243.695 29.2578C242.948 28.8021 242.346 28.3372 241.891 27.8633C241.435 27.3711 241.061 26.7878 240.77 26.1133C240.478 25.4388 240.332 24.7005 240.332 23.8984C240.332 23.3151 240.396 22.7409 240.523 22.1758C240.669 21.5924 240.934 20.9909 241.316 20.3711C241.717 19.7513 242.21 19.2135 242.793 18.7578C243.395 18.2839 244.188 17.901 245.172 17.6094C246.174 17.2995 247.305 17.1445 248.562 17.1445C249.073 17.1445 249.52 17.1719 249.902 17.2266C250.303 17.2812 250.777 17.3815 251.324 17.5273C251.889 17.6549 252.199 17.7279 252.254 17.7461C252.655 17.6549 253.065 17.5365 253.484 17.3906C253.922 17.2448 254.168 17.1628 254.223 17.1445H254.934C255.371 19.7695 255.936 22.0026 256.629 23.8438C256.41 24.0807 256.055 24.1992 255.562 24.1992C254.049 22.3763 252.755 21.0456 251.68 20.207C250.622 19.3503 249.419 18.9219 248.07 18.9219C247.013 18.9219 246.083 19.1589 245.281 19.6328C244.479 20.1068 244.078 20.8268 244.078 21.793C244.078 23.0143 244.561 23.9714 245.527 24.6641C246.512 25.3568 248.326 26.2409 250.969 27.3164C252.19 27.8086 253.147 28.2188 253.84 28.5469C254.551 28.875 255.262 29.2669 255.973 29.7227C256.684 30.1784 257.203 30.6523 257.531 31.1445C257.878 31.6185 258.16 32.1927 258.379 32.8672C258.598 33.5417 258.707 34.3255 258.707 35.2188C258.707 37.151 257.814 38.901 256.027 40.4688C254.259 42.0182 252.126 42.793 249.629 42.793Z" fill="#462BEE"/>
</svg>
